<svg xmlns="http://www.w3.org/2000/svg" xmlns:xlink="http://www.w3.org/1999/xlink" version="1.1" width="256" height="256" viewBox="0 0 256 256" xml:space="preserve">

<defs>
</defs>
<g style="stroke: none; stroke-width: 0; stroke-dasharray: none; stroke-linecap: butt; stroke-linejoin: miter; stroke-miterlimit: 10; fill: none; fill-rule: nonzero; opacity: 1;" transform="translate(1.4065934065934016 1.4065934065934016) scale(2.81 2.81)" >
	<path d="M 6.316 75.013 c 0.027 2.411 0.901 4.213 2.337 5.261 c 0.184 0.134 0.385 0.246 0.587 0.355 l -0.004 0.012 l 0.118 0.057 c 0.041 0.021 0.083 0.04 0.124 0.06 l 17.797 8.561 l 0.738 -0.428 c -0.423 -0.898 -0.671 -1.965 -0.685 -3.205 l -0.231 -20.726 l -0.209 -18.781 c -0.039 -3.497 1.713 -7.447 4.406 -10.581 L 9.962 25.318 c -2.508 3.068 -4.124 6.833 -4.086 10.187 l 0.209 18.781 L 6.316 75.013 z" style="stroke: none; stroke-width: 1; stroke-dasharray: none; stroke-linecap: butt; stroke-linejoin: miter; stroke-miterlimit: 10; fill: rgb(52,58,64); fill-rule: nonzero; opacity: 1;" transform=" matrix(1 0 0 1 0 0) " stroke-linecap="round" />
	<path d="M 62.715 0.538 L 62.71 0.546 c -1.846 -0.86 -4.335 -0.735 -7.07 0.595 L 15.923 20.457 c -2.24 1.089 -4.295 2.823 -5.961 4.861 c 0.9 7.946 6.189 11.544 18.007 8.677 c 1.606 -1.869 6.871 -1.846 8.967 -2.865 l 39.717 -19.316 c 1.36 -0.662 2.659 -1.021 3.85 -1.115 l 0.11 -1.536 L 62.715 0.538 z" style="stroke: none; stroke-width: 1; stroke-dasharray: none; stroke-linecap: butt; stroke-linejoin: miter; stroke-miterlimit: 10; fill: rgb(59,66,73); fill-rule: nonzero; opacity: 1;" transform=" matrix(1 0 0 1 0 0) " stroke-linecap="round" />
	<path d="M 73.938 9.789 L 34.119 28.713 c -5.626 2.674 -10.186 9.402 -10.186 15.028 V 62.67 v 2.006 V 83.56 c 0 5.626 4.561 8.019 10.186 5.345 l 13.736 -6.528 l 26.083 -12.396 c 5.626 -2.674 10.186 -9.402 10.186 -15.028 V 15.134 C 84.125 9.508 79.564 7.115 73.938 9.789 z" style="stroke: none; stroke-width: 1; stroke-dasharray: none; stroke-linecap: butt; stroke-linejoin: miter; stroke-miterlimit: 10; fill: rgb(70,78,87); fill-rule: nonzero; opacity: 1;" transform=" matrix(1 0 0 1 0 0) " stroke-linecap="round" />
	<path d="M 39.338 63.133 c 0 0 1.485 -0.009 2.517 2.12 c 0 0 1.331 3.413 7.635 -0.955 c 0.006 1.2 0.017 2.353 0.024 3.173 c 0.004 0.41 0.338 0.581 0.751 0.385 l 9.749 -4.633 c 0.412 -0.196 0.748 -0.686 0.75 -1.1 c 0.007 -1.164 0.021 -3.031 0.021 -5.193 c 0 -2.114 -0.724 -3.15 -1.537 -3.467 c 5.047 -2.96 10.349 -7.396 10.349 -16.101 c 0 -2.474 -0.879 -4.078 -2.333 -4.975 c 0.235 -0.683 1.011 -3.357 -0.223 -5.892 c 0 0 -1.9 0.295 -6.226 5.282 c -1.811 0.359 -3.752 1.029 -5.678 1.936 c -1.926 0.925 -3.865 2.098 -5.672 3.459 c -4.331 -0.874 -6.234 0.639 -6.234 0.639 c -1.231 3.707 -0.455 5.643 -0.22 6.102 c -1.45 2.276 -2.336 4.719 -2.336 7.193 c 0 8.684 5.292 8.112 10.326 6.293 c -0.648 0.874 -1.235 2.153 -1.439 3.715 c -1.293 1.194 -4.574 3.755 -6.595 1.251 c 0 0 -1.199 -1.606 -3.474 -0.685 C 39.493 61.681 37.281 62.703 39.338 63.133 z" style="stroke: none; stroke-width: 1; stroke-dasharray: none; stroke-linecap: butt; stroke-linejoin: miter; stroke-miterlimit: 10; fill: rgb(255,255,255); fill-rule: nonzero; opacity: 1;" transform=" matrix(1 0 0 1 0 0) " stroke-linecap="round" />
</g>
</svg>